<?xml version="1.0" encoding="UTF-8"?>
<svg id="Layer_1" data-name="Layer 1" xmlns="http://www.w3.org/2000/svg" xmlns:xlink="http://www.w3.org/1999/xlink" viewBox="0 0 765.51 198.82">
  <defs>
    <style>
      .cls-1 {
        fill: #073344;
      }

      .cls-2 {
        fill: #052f2e;
      }

      .cls-3 {
        fill: #fff3c8;
      }
    </style>
  </defs>
  <rect class="cls-2" x="261.62" y="0" width="192" height="192" rx="23.72" ry="23.72"/>
  <g>
    <path class="cls-1" d="m3.06,179.95c-.32-.06-.67-.25-1.04-.59-.38-.33-.72-.71-1.02-1.13-.3-.42-.5-.77-.59-1.06,0-.06-.07-.17-.22-.35-.12-.09-.18-.47-.2-1.15-.01-.68.02-1.44.11-2.28.09-.84.19-1.5.3-2,.14-.46.36-1.09.65-1.89.29-.8.54-1.51.74-2.15l1.17-2.52-1.74-.48c-.2-.06-.37-.17-.5-.35s-.2-.32-.2-.43c0-.23.13-.56.39-1,.26-.43.45-.65.56-.65.14.03.41.04.8.04s.77-.01,1.15-.04c.38-.03.61-.06.69-.09.12-.06.23-.14.35-.24.12-.1.2-.25.26-.46.14-.32.27-.56.39-.74.12-.17.27-.43.48-.78.2-.38.37-.69.5-.95s.34-.62.63-1.09c.14-.2.3-.45.48-.74.17-.29.39-.53.65-.74.26-.23.69-.4,1.28-.5.59-.1,1.11.04,1.54.41.23.29.36.56.39.82s-.09.59-.35,1c-.23.49-.5.93-.8,1.32-.3.39-.59.83-.85,1.32-.46.64-.55,1-.26,1.08.29.09,1.1.03,2.43-.17.84-.14,1.45-.06,1.82.26.38.32.59.72.65,1.22.09.69.01,1.11-.22,1.26-.23.15-.9.22-2,.22-.69.12-1.29.18-1.78.19-.49.02-.85.02-1.08.02-.38.03-.62.04-.74.04s-.29.03-.52.09c-.23.06-.4.15-.5.28-.1.13-.21.31-.33.54-.12.12-.29.42-.52.91-.23.49-.52,1.03-.87,1.61-.41,1.22-.75,2.38-1.02,3.49-.28,1.11-.51,2.22-.72,3.32-.09.55-.07.95.06,1.19.13.25.5.4,1.11.46.32.03.78.02,1.39-.02.61-.04,1.11-.12,1.52-.24.32-.14.65-.3,1-.46s.67-.33.95-.5c.26-.15.65-.38,1.17-.69.14-.23.35-.2.63.11.27.3.47.63.59.98,0,.35-.07.76-.22,1.24-.14.48-.68.98-1.61,1.5-1.3.81-2.6,1.3-3.91,1.48s-2.33.19-3.08.04Z"/>
    <path class="cls-1" d="m18.17,187.58c-.32.03-.81-.04-1.48-.2s-1.32-.46-1.95-.89c-.78-.67-1.32-1.21-1.61-1.65-.29-.43-.44-.82-.46-1.15-.02-.33,0-.63.02-.89.14-.64.46-.94.93-.91.48.03.85.16,1.11.39.29.23.6.51.93.85s.67.63,1,.89.62.38.85.35c.58-.06,1.06-.3,1.43-.72.38-.42.75-1.08,1.13-1.98.23-.64.41-1.19.54-1.65.13-.46.27-.97.41-1.52.14-.55.32-1.29.52-2.21.14-.67.25-1.14.33-1.41.07-.28.11-.45.11-.52s-.02-.11-.04-.11c-.4.23-.79.42-1.15.56-.36.15-.76.29-1.19.43-.81.26-1.62.49-2.43.67-.81.19-1.43.21-1.87.06-.43-.17-.78-.46-1.04-.87-.26-.4-.43-.84-.5-1.3-.07-.46-.09-.84-.07-1.13.06-.23.19-.61.39-1.13.2-.52.43-1.07.69-1.65.26-.58.51-1.08.74-1.52.23-.43.42-.67.56-.69.12-.06.22-.18.33-.37s.15-.34.15-.46c.03-.12.15-.3.37-.56.22-.26.86-.77,1.93-1.52,1.07-1.01,2.04-1.77,2.91-2.28s1.66-.79,2.39-.85c.2.03.49.04.87.04.64.17,1.11.33,1.43.48.38.15.78.49,1.22,1.02.43.54.81,1.12,1.13,1.76s.49,1.21.52,1.74c-.03.64-.17,1.27-.43,1.91s-.51.94-.74.91c-.23-.03-.49.05-.76.24-.28.19-.49.54-.63,1.06-.09.12-.19.3-.3.54-.12.25-.25.49-.39.72-.03.14-.1.5-.22,1.06-.12.56-.25,1.19-.41,1.87-.16.68-.3,1.3-.41,1.87-.12.56-.19.93-.22,1.11-.03.12-.1.38-.22.8-.12.42-.25.89-.41,1.41-.16.52-.33,1-.5,1.43-.12.84-.35,1.57-.69,2.19-.35.62-.72,1.18-1.13,1.67-.67.72-1.32,1.24-1.97,1.54-.65.3-1.22.48-1.71.54Zm-.83-15.19c.09.23.33.32.72.26.39-.06.93-.19,1.63-.39.84-.35,1.47-.62,1.89-.83.42-.2.74-.46.98-.78.17-.23.34-.46.5-.69s.31-.43.46-.61c.06-.06.15-.16.28-.3.13-.15.24-.28.33-.39.17-.12.33-.22.46-.33.13-.1.25-.2.37-.28.14-.06.27-.19.39-.41.12-.22.14-.44.09-.67-.03-.2-.16-.48-.39-.85-.23-.36-.55-.64-.96-.85-.38-.23-.82-.07-1.32.48-.51.55-1.31,1.29-2.41,2.21-.64.69-1.2,1.34-1.69,1.93-.49.59-.85,1.1-1.08,1.52-.23.42-.3.74-.22.98Z"/>
  </g>
  <image width="1080" height="1080" transform="translate(569.59 2.89) scale(.18)" xlink:href="../../nowls-app/src/assets/logo.png"/>
  <g>
    <path class="cls-3" d="m422.31,104.53c.06-1.22.11-2.46.17-3.75.45-.25.91-.5,1.37-.75,1.67.97,3.44.9,5.2.53,1.68-.36,3.36-.66,5.06-.48,1.01.1,2.03.33,2.99.66,1.17.4,1.83,1.29,1.92,2.56.17,2.3.37,4.6.12,6.91-.03.31,0,.62,0,1.05,3-.31,5.85-.95,8.63-1.92,0-.07,0-.15,0-.22-.31-.12-.62-.25-.94-.37-2.04-.74-3.82-1.87-5.19-3.58-.85-1.06-.78-1.37.13-2.35,1.59-1.72,3.13-3.48,4.69-5.23.19-.21.33-.46.48-.7.03-.04,0-.12-.03-.27-.2.06-.4.11-.58.18-3.38,1.28-6.89,1.65-10.47,1.43-2.68-.16-5.35-.47-8.14-.72.71-.64,1.38-1.29,2.11-1.87.18-.14.55-.09.83-.07,2.02.15,4.03.37,6.05.47,2.57.13,5.11-.1,7.58-.87,1.99-.62,3.83-1.5,5.32-3,.51-.51,1.05-.58,1.53-.27.49.33.66.8.32,1.5-.61,1.28-1.24,2.56-1.99,3.75-1.38,2.21-3.07,4.17-4.9,6.01-.27.27-.63.47-1.05.77.48.48.75.79,1.07,1.05,1.64,1.34,3.55,2.04,5.63,2.31.6.08,1.2.12,1.8.18.73.07,1.07.31,1.18.85.11.53-.07.95-.72,1.28-1.04.53-2.09,1.05-3.18,1.49-3.01,1.21-6.17,1.85-9.38,2.31-1.04.15-1.08.19-.98,1.28.12,1.34.24,2.69.33,4.03.03.46.02.93-.03,1.38-.18,1.57-.86,2.81-2.25,3.66-1.67,1.02-3.49,1.54-5.41,1.78-.17.02-.35.04-.62.07-.09.52-.24,1.03-.27,1.54-.1,1.48-.19,2.97-.2,4.46-.02,1.45.06,2.91.1,4.37.04,1.33-.39,2.51-1.09,3.61-.91,1.44-2.14,2.55-3.55,3.48-3.52,2.31-7.33,4.02-11.26,5.5-1.06.4-2.13.77-3.32,1.19-.1.82-.19,1.7-.33,2.56-.25,1.61-.57,3.21-.78,4.83-.11.84-.04,1.7-.04,2.55,0,1.03.07,2.06.05,3.09-.03,1.14-.5,2.13-1.13,3.05-.81,1.16-1.88,2.02-3.06,2.77-3.05,1.93-6.34,3.32-9.75,4.46-5.02,1.69-10.17,2.85-15.39,3.68-6.64,1.06-13.31,1.61-20.03,1.68-4.87.05-9.72-.18-14.56-.67-7.99-.82-15.87-2.22-23.48-4.87-3.19-1.11-6.28-2.44-9.12-4.29-.68-.44-1.33-.95-1.92-1.51-1.43-1.36-2.23-3.01-2.13-5.03.01-.25,0-.5.01-.75.22-2.75-.04-5.46-.62-8.14-.18-.83-.3-1.68-.34-2.53-.03-.61-.3-.85-.84-1.03-3.46-1.17-6.87-2.5-10.1-4.22-1.28-.68-2.56-1.39-3.76-2.21-.93-.63-1.8-1.39-2.58-2.2-1.43-1.5-2.17-3.31-2.1-5.41.04-1.28.11-2.55.16-3.83.08-2.1-.1-4.18-.54-6.35-.39-.08-.79-.17-1.2-.23-1.7-.26-3.29-.8-4.77-1.71-1.44-.88-2.13-2.17-2.2-3.78-.05-1.13.05-2.27.11-3.4.06-.98.23-1.96.15-2.95-1.79-.33-3.5-.6-5.19-.97-2.71-.59-5.34-1.43-7.81-2.74-.28-.15-.62-.26-.81-.49-.23-.28-.44-.67-.43-1.01,0-.44.34-.79.81-.87.49-.08.99-.1,1.48-.14,2.05-.17,3.98-.72,5.68-1.9.54-.38,1.03-.84,1.62-1.33-.4-.41-.72-.74-1.03-1.06-2.3-2.38-4.4-4.92-5.97-7.86-.33-.62-.63-1.27-.89-1.93-.24-.63-.07-1.11.39-1.41.47-.3.97-.26,1.45.21,2.48,2.44,5.6,3.41,8.94,3.76,1.69.18,3.4.13,5.1.14.43,0,.75.06,1.01.43.34.49.72.94,1.2,1.55-4.68.53-9.11.34-13.66-1.47.26.47.34.72.5.91,1.52,1.74,3.05,3.46,4.58,5.18.14.16.31.29.46.44.63.66.7,1.03.12,1.77-.52.67-1.11,1.3-1.75,1.85-1.36,1.18-2.98,1.9-4.72,2.41,1.04.81,6.7,2.16,8.69,2.09.03-.12.09-.25.08-.38-.23-2.48-.13-4.96.08-7.44.11-1.22.67-2.08,1.77-2.57,1.91-.85,3.92-.89,5.95-.62.19.02.39.17.54.31,2.05,1.73,4.35,3.06,6.82,4.09.06.03.11.08.26.19-1.53.35-2.99.72-4.46,1-1.85.35-3.72.58-5.61.48-.78-.04-1.51-.15-1.8-1.02-.22-.68.2-1.48,1.04-2.04.2-.13.41-.24.71-.42-1.89-.1-3.31,1.26-3.25,2.95.03.78.04,1.56.08,2.34.06,1.17.18,2.34.19,3.5.02,1.56-.04,3.12-.08,4.68-.03,1.27-.11,2.55-.11,3.82,0,.84.47,1.44,1.19,1.89,1.26.78,2.61,1.22,4.21,1.39-.1-.83-.18-1.59-.29-2.35-.48-3.29-.46-6.58-.09-9.87.1-.92.7-1.53,1.45-1.99.93-.57,1.96-.82,3.02-.96,1.45-.19,2.89-.23,4.36.12.21,1.33.4,2.62.63,3.91.2,1.15.47,2.29.67,3.44.11.65.41,1.09,1.05,1.32.46.16.9.4,1.54.68-1.01-4.05-1.82-7.97-2.02-12.11.62.16,1.13.29,1.74.45.14,1.06.23,2.15.43,3.21.5,2.65,1.1,5.27,1.57,7.92.24,1.37,1.02,1.99,2.47,2.15-1.3-4.2-2.28-8.42-2.63-12.89,1.24.18,2.41.34,3.62.51.26,1.56.47,3.06.75,4.55.57,3.04,1.45,5.99,2.53,8.89.2.53.51.8,1.03.94,2.94.82,5.87,1.65,8.8,2.49.55.16,1.02.08,1.51-.25,1.06-.71,2.16-1.36,3.25-2.04.27-.17.54-.39.86.15-1.37.74-2.72,1.48-4.18,2.27.23.15.35.28.49.31,1.11.25,2.23.45,3.32.73.51.13.89.02,1.26-.31.29-.25.61-.5.95-.68.12-.07.34.06.71.13-.52.42-.88.72-1.42,1.16,1.8.33,3.4.63,5.24.97-.31-.38-.46-.6-.64-.79-4.12-4.23-7.97-8.68-11.51-13.4-.83-1.11-1.73-2.17-2.64-3.21-1.54-1.76-3.48-2.71-5.82-2.97-3.03-.34-6.08-.64-9.05-1.27-8.84-1.87-15.07-6.98-18.36-15.46-1.38-3.56-1.83-7.29-1.67-11.08.1-2.3.38-4.59.58-6.89.19-2.14.12-4.26-.35-6.35-.75-3.33-2.69-5.74-5.75-7.23-3.04-1.48-6.17-2.7-9.54-3.2-.97-.14-1.84-.52-2.62-1.11-1.34-1.02-1.86-2.42-1.6-4.04.24-1.57,1.3-2.48,2.78-2.9,1.55-.44,3.11-.31,4.64.04,4.07.93,7.94,2.38,11.49,4.62,2.33,1.48,4.28,3.39,6.07,5.47.6.7,1.22,1.39,1.87,2.04,1.16,1.15,2.55,1.79,4.22,1.67,1.34-.1,2.69-.2,4.03-.32,2.63-.23,5.25-.25,7.83.38,3.25.79,6.03,2.45,8.45,4.73,2.76,2.6,4.77,5.7,6.24,9.18.21.51.25.92-.13,1.37-.3.35-.52.76-.78,1.14-.03.05-.12.06-.22.11-.31-.79-.6-1.58-.93-2.35-1.66-3.81-4.05-7.08-7.44-9.55-2.71-1.98-5.75-3.09-9.12-3.08-1.95,0-3.89.21-5.84.32-.67.04-1.34.11-2.02.14-2.1.09-3.9-.65-5.42-2.06-.73-.67-1.42-1.4-2.04-2.17-4.43-5.58-10.47-8.31-17.23-9.74-.85-.18-1.77-.13-2.65-.06-1.03.08-1.65.63-1.8,1.39-.18.89.18,1.75,1.08,2.23.58.31,1.24.54,1.9.64,3.66.58,7.04,1.93,10.28,3.65,3.67,1.95,5.71,5.11,6.39,9.17.5,3.01.3,6.01-.1,9.02-.59,4.56-.48,9.09,1.04,13.47,2.68,7.7,8.09,12.49,15.93,14.59,2.61.7,5.3.97,7.98,1.28,1.16.13,2.33.26,3.48.46,1.91.34,3.55,1.24,4.91,2.61.97.98,1.91,2.02,2.74,3.12,3.68,4.88,7.6,9.56,11.86,13.95.28.29.45.7.59,1.09.18.49.28,1.02.42,1.55.31.08.57.17.85.21.31.04.62.04,1.03.06-.04-.3-.05-.53-.09-.76-.77-3.53-1.63-7.05-2.29-10.6-.47-2.58-.78-5.2-.97-7.81-.74-9.92-.71-19.87-.69-29.81,0-.42,0-.84,0-1.54-.34.42-.54.63-.7.88-1.63,2.5-3.33,4.95-4.84,7.52-.97,1.65-2.21,2.32-4.09,2.18-1.87-.14-2.4-.02-2.67-2.56-.19-1.72.16-3.29,1.15-4.75,2.82-4.13,5.59-8.3,8.37-12.46.89-1.33,1.78-2.65,2.62-4.01.23-.37.37-.85.39-1.28.1-2.02.15-4.04.22-6.07.08-2.54.7-4.91,2.16-7.02,2.22-3.21,4.44-6.42,6.66-9.64.19-.27.36-.56.54-.84-.07-.06-.14-.11-.22-.17-.14.19-.26.39-.41.58-2.67,3.41-5.34,6.82-7.99,10.25-.37.49-.73.73-1.33.58-.1-.03-.21-.03-.32-.04-1.45-.14-1.6-.28-1.7-1.71-.12-1.65.14-3.26.53-4.85.5-2.04,1.15-4.03,2.1-5.91,2.42-4.82,4.87-9.62,7.27-14.45,1.23-2.48,2.39-4.99,3.58-7.49.48-1.02.61-1.08,1.73-.87.87.17,1.74.32,2.73.51.09.84.17,1.67.27,2.6.63-.4.72-1.11,1.3-1.58.08.62.16,1.18.23,1.74.06.03.12.05.19.08.33-.5.67-1,1.11-1.66.1.75.17,1.32.27,2.12.47-.68.8-1.17,1.25-1.82.11.73.19,1.27.31,2.05.44-.64.79-1.14,1.27-1.84.08.8.14,1.37.23,2.21.48-.72.83-1.24,1.3-1.95.07.78.13,1.34.21,2.2.49-.69.84-1.18,1.32-1.85.07.75.13,1.29.18,1.83.06.03.12.06.19.09.35-.49.69-.98,1.15-1.63.09.73.15,1.27.23,1.93.65-.39.75-1.1,1.31-1.55.1.65.18,1.21.3,1.95.44-.63.78-1.11,1.17-1.67.44.57.05,1.23.41,1.85.39-.54.75-1.03,1.24-1.71.06.77.11,1.34.18,2.18.49-.7.85-1.2,1.36-1.93.06.78.1,1.34.14,1.9.06.03.12.06.17.1.35-.49.71-.97,1.19-1.64.08.74.13,1.27.19,1.8.06.03.12.06.18.09.35-.49.7-.98,1.17-1.64.09.75.15,1.29.25,2.08.48-.68.83-1.18,1.18-1.68.07,0,.13,0,.2.01.03.56.05,1.12.08,1.79.67-.37.8-1.12,1.41-1.59.04.65.08,1.22.14,2.07.51-.69.87-1.18,1.38-1.88.05.78.09,1.34.14,2.18.51-.7.87-1.2,1.36-1.88.04.46.07.75.09,1.03.02.27.03.55.23.91.38-.52.75-1.04,1.27-1.76.05.77.08,1.32.12,1.97.7-.36.81-1.12,1.44-1.58.03.64.06,1.21.1,2,.51-.63.9-1.12,1.44-1.79v1.89c.07.03.14.07.21.1.38-.51.77-1.03,1.28-1.72.04.77.07,1.34.11,2.19.52-.69.88-1.17,1.41-1.87.04.76.07,1.3.1,1.93.71-.35.82-1.13,1.47-1.55v1.76c.07.03.14.06.22.09.55-.74,1.1-1.48,1.69-2.26.81.13,1.62.23,2.41.4,1,.21,1.2.74.61,1.62-1.14,1.72-2.28,3.43-3.46,5.12-.44.63-.75,1.28-.89,2.02-.2,1.11-.7,2.07-1.4,2.94-.78.96-1.53,1.95-2.29,2.92.04.14.04.26.1.34,2.5,3.26,3.97,7.03,5.24,10.88,1.5,4.53,2.42,9.18,3.04,13.91.7,5.29.87,10.61,1.07,15.93.15,3.76.3,7.52.35,11.28.1,7.79-.52,15.53-1.62,23.24-.68,4.78-1.36,9.55-2.04,14.33-.02.16-.02.33-.03.62,1.3-.19,2.51-.37,3.96-.59-.73-.63-1.28-1.1-1.87-1.61.18-.21.34-.39.55-.64.62.55,1.22,1.04,1.77,1.59.4.4.82.48,1.35.37.92-.2,1.85-.37,2.81-.75-1.44-.95-2.89-1.89-4.4-2.89.18-.23.32-.41.52-.67.37.27.71.51,1.04.75,1.08.81,2.17,1.61,3.23,2.43.37.28.72.4,1.18.29,1.28-.29,2.56-.57,4.11-.91-2.72-1.59-5.35-2.85-7.94-4.33.16-.21.29-.4.47-.63.28.15.53.27.76.42,2.11,1.31,4.22,2.61,6.32,3.95.54.35,1.03.48,1.68.29,2.79-.81,5.59-1.57,8.4-2.32.58-.15.89-.44,1.1-1,1.67-4.44,2.82-9,3.28-13.72.07-.78.16-1.55.26-2.41,1.16-.32,2.34-.65,3.62-1.01-.16,5.57-1.2,10.86-2.89,16.06,1.38.02,1.95-.37,2.29-1.53,1.27-4.38,2.08-8.83,2.27-13.4.02-.46.07-.92.11-1.38,0-.1.04-.21.08-.39.48-.19.99-.4,1.67-.68.03,5.42-.87,10.58-2.24,15.82.88-.17,1.54-.5,2.15-.88.19-.12.3-.47.35-.73.43-2.23.85-4.46,1.26-6.69.05-.24.07-.49.13-.85.6-.12,1.21-.28,1.83-.37,1.91-.26,3.82-.41,5.71.09.41.11.81.26,1.19.46.87.47,1.32,1.18,1.39,2.22.27,4.13.02,8.23-.61,12.3.07.06.12.14.17.14,1.72-.07,3.25-.66,4.61-1.7.52-.39.71-.99.72-1.6.02-1.03.05-2.07-.07-3.08-.26-2.16-.25-4.31-.02-6.48.16-1.51.13-3.05.06-4.57-.1-2.26-1.4-3.33-3.65-3.08-.17.02-.34.05-.54.2.44.12.9.19,1.32.36,1.19.47,1.52,1.76.64,2.54-.26.23-.69.33-1.06.35-2.29.14-4.53-.21-6.76-.68-1.49-.31-2.97-.63-4.6-.98Zm-83.91-57.18c-.58.78-.25,1.64-.34,2.46.07,0,.15.01.22.02.04-.83.08-1.65.12-2.49v-.93s-.05,0-.08,0c.03.31.05.63.08.94Zm-4.59,30.51c-1.28.99-1.84,2.26-1.55,3.9.32,1.81.68,3.62.85,5.45.35,3.74.36,7.5.11,11.26-.04.6,0,1.2,0,1.79.56-2.6.72-5.24.76-7.89.05-3.45-.23-6.87-1.16-10.21-.39-1.41-.16-2.65.76-3.79.12-.14.14-.36.21-.54.21-.11.42-.21.64-.32-.06-.08-.13-.16-.19-.25-.14.2-.29.39-.43.59Zm-39.27,32.26c-.54-.51-1.03-.33-1.48-.19-1.69.5-2.89,2.12-2.95,4.02-.1,3.1.14,6.17.77,9.21.7,3.39,1.14,6.78.8,10.25-.08.81-.03,1.63-.06,2.45-.04,1.19.38,2.22,1.08,3.16.77,1.04,1.76,1.84,2.84,2.54,2.24,1.45,4.6,2.66,7.05,3.71,8.46,3.64,17.34,5.76,26.4,7.2,4.06.65,8.15,1.14,12.24,1.55,3.85.38,7.71.62,11.57.79,5.93.26,11.86.21,17.78-.19,3.72-.25,7.43-.52,11.14-.92,4.94-.52,9.84-1.29,14.71-2.28,6.54-1.33,12.97-3.03,19.18-5.53,3.23-1.3,6.35-2.82,9.25-4.76,2.53-1.69,3.83-3.91,3.47-7.11-.39-3.5-.15-7,.69-10.46.76-3.12.9-6.32.87-9.52,0-.75-.28-1.53-.58-2.24-.41-.95-1.2-1.57-2.17-1.93-.39-.14-.83-.24-1.06.38.22.14.43.27.63.4,1.04.68,1.42,1.68,1.21,2.85-.2,1.11-.74,2.04-1.78,2.65-2.7,1.58-5.5,2.95-8.39,4.14-9.87,4.05-20.17,6.45-30.67,8.07-6.18.95-12.39,1.53-18.63,1.84-8.7.43-17.39.19-26.06-.62-4.98-.47-9.93-1.15-14.85-2.05-6.81-1.25-13.52-2.89-20.06-5.15-4.7-1.62-9.27-3.54-13.56-6.09-1-.59-1.52-1.48-1.78-2.54-.33-1.35.29-2.57,1.52-3.19.27-.13.53-.27.88-.44Zm111.82,41.24c-.42.09-.69.14-.95.2-3.63.81-7.26,1.65-10.9,2.42-2.05.43-4.14.64-6.17,1.13-7.93,1.91-15.97,2.92-24.11,3.23-4.72.18-9.44.06-14.15-.32-4.35-.35-8.68-.87-12.97-1.71-2.16-.42-4.29-.97-6.45-1.33-5.39-.9-10.75-1.89-16.03-3.32-.26-.07-.54-.1-.96-.18,1.58,3.54,2.01,7,.26,10.48.36-3.64-.15-7.19-1-10.75-.51-.15-1-.29-1.63-.48.1.76.15,1.36.26,1.94.52,2.55.86,5.11.69,7.72-.03.46-.03.92-.07,1.38-.14,1.59.51,2.83,1.7,3.82.41.34.82.69,1.28.94,1.58.87,3.14,1.81,4.79,2.53,7.31,3.2,15.04,4.81,22.92,5.77,3.8.46,7.63.73,11.45.97,4.79.3,9.59.22,14.37-.17,4.13-.34,8.26-.84,12.36-1.43,5.1-.73,10.09-1.94,14.96-3.64,3.19-1.12,6.27-2.46,9.1-4.34,1.85-1.23,2.91-2.8,2.67-5.17-.16-1.51-.1-3.05-.01-4.56.07-1.09.37-2.16.53-3.25.12-.82.43-1.63.23-2.57-.56.17-1.06.32-1.58.47-.86,3.65-1.42,7.29-1.05,11.02-1.78-3.62-1.3-7.18.45-10.8Zm-31.45-115.36c.38,1.11.75,2.22,1.13,3.33-1.09-1.51-1.9-3.16-3.19-4.5.41,1.24.83,2.48,1.24,3.73-.99-1.41-1.75-2.92-2.92-4.17.34,1.1.68,2.21,1.03,3.31-.54-.59-.88-1.25-1.25-1.89-.37-.66-.77-1.3-1.16-1.95-.07.03-.14.06-.2.09.3,1.11.59,2.21.89,3.32-.92-1.28-1.49-2.7-2.52-3.88.28,1.16.56,2.32.84,3.48-.9-1.18-1.36-2.59-2.32-3.73.25,1.24.49,2.48.74,3.72-.04.01-.09.02-.13.03-.64-1.39-1.28-2.78-1.92-4.18-.06.02-.12.05-.18.07.19,1.21.38,2.43.56,3.64-.05.02-.1.03-.15.05-.52-1.25-1.04-2.5-1.57-3.75-.07.02-.14.03-.21.05.09,1.02.18,2.04.28,3.06-.07.02-.14.03-.21.05-.45-1.2-.89-2.39-1.34-3.59-.08.01-.15.03-.23.04.07,1.19.15,2.39.22,3.58-.06.01-.11.02-.17.03-.41-1.28-.82-2.56-1.23-3.84-.06.02-.12.04-.18.05v3.76s-.09.01-.13.02c-.36-1.35-.72-2.7-1.08-4.04-.06,0-.12.01-.18.02-.08,1.2-.15,2.4-.24,3.81-.56-1.42-.55-2.77-1.19-3.95-.11,1.28-.22,2.57-.33,3.85-.05,0-.09,0-.14.01-.23-1.38-.46-2.76-.69-4.13l-.17-.02c-.19,1.23-.38,2.47-.57,3.7-.26-.66-.33-1.29-.43-1.92-.09-.59.07-1.23-.4-1.93-.27,1.51-.52,2.86-.76,4.2-.05,0-.1,0-.15-.01-.09-1.39-.18-2.77-.28-4.16l-.21-.02c-.32,1.46-.63,2.93-.99,4.58-.4-1.55-.04-2.99-.27-4.37-.07,0-.14-.02-.21-.02-.39,1.74-.78,3.49-1.18,5.23-.03,0-.06,0-.09,0v-4.88c-.85,1.85-1.26,3.78-1.77,5.72.08-1.69.16-3.37.24-5.06-.41.63-.65,1.29-.82,1.97-.54,2.26-.64,4.56-.61,6.87.14,11.5.25,23.01.42,34.51.13,8.7-.03,17.4.61,26.08.27,3.71.67,7.42,1.22,11.1.56,3.68,1.39,7.31,2.08,10.97.24,1.28.43,2.58.64,3.85,1.31.33,5.43.39,6.33.08-.25-.11-.47-.21-.69-.31-1.63-.75-2.78-1.94-3.31-3.68-.24-.78-.48-1.56-.69-2.35-.8-3.06-1.12-6.21-1.54-9.34-.77-5.67-1.28-11.36-1.37-17.08-.21-13.1-.32-26.2-.44-39.3-.02-2.06.08-4.12.19-6.17.15-2.57,1.85-4.38,4.93-3.69-.24.04-.41.08-.58.11-2.99.39-3.31,2.12-3.21,4.11,0,.04,0,.07,0,.11.16,4.75.38,9.51.45,14.26.13,9.41.13,18.82.27,28.23.05,3.72.2,7.46.53,11.17.33,3.78.88,7.54,1.4,11.3.37,2.71.91,5.38,1.74,7.99.47,1.47,1.42,2.42,2.85,2.93.47.16.94.33,1.42.42,1.18.22,2.38.39,3.57.59.26.04.55,0,.63.42.11.55.47.38.79.22.31-2.37,1.5-3.42,3.16-2.81-1.78.65-2.23,1.31-1.91,2.84.59,0,1.19-.02,1.78,0,.47.02.73-.19.88-.6.02-.04.1-.06.15-.08.04.17.08.33.14.61,2.5-.21,4.97-.43,7.44-.6,1.15-.08,1.8-.73,2.24-1.69.21-.46.37-.95.55-1.43.07.02.13.04.2.06-.21.88-.43,1.75-.67,2.76.88-.11,1.7-.21,2.56-.31.17-1.3.31-2.49.48-3.68.7-4.88,1.44-9.75,2.1-14.64.84-6.27,1.3-12.57,1.22-18.9-.06-4.4-.23-8.8-.38-13.2-.17-5.11-.4-10.21-1.06-15.29-.69-5.26-1.81-10.41-3.65-15.39-.95-2.56-1.98-5.09-3.58-7.34-.24-.34-.51-.67-.76-1-.05.03-.11.05-.16.08.52,1.51,1.04,3.02,1.55,4.53-.07.03-.14.06-.21.08-1-2.06-1.96-4.15-3.51-5.93Zm5.1-7.47c-.06-.02-.11-.04-.17-.05.26-1.41.52-2.81.77-4.22-.06-.02-.12-.05-.18-.07-.65,1.39-1.3,2.78-1.95,4.18-.05-.01-.09-.03-.14-.04.19-1.31.39-2.62.58-3.93-.06-.02-.13-.05-.19-.07-.57,1.27-1.15,2.54-1.72,3.81-.05-.01-.11-.02-.16-.04.19-1.34.39-2.69.61-4.26-.95,1.37-1.3,2.81-2.09,4.04.15-1.25.3-2.49.45-3.74l-.21-.07c-.28.59-.57,1.18-.82,1.78-.26.61-.48,1.23-.72,1.85-.06-.02-.13-.04-.19-.07.16-1.33.32-2.66.48-3.99-.07-.02-.14-.03-.22-.05-.54,1.33-1.08,2.67-1.61,4-.05,0-.1-.02-.15-.02.14-1.34.29-2.68.43-4.02-.9,1.15-1.2,2.57-1.93,3.8.14-1.38.28-2.76.43-4.14-.07-.02-.15-.04-.22-.06-.51,1.34-1.03,2.67-1.54,4.01-.05-.02-.11-.03-.16-.05.14-1.39.28-2.78.42-4.17-.88,1.23-1.2,2.68-1.9,4,.13-1.45.26-2.91.38-4.36-.06-.02-.13-.04-.19-.06-.51,1.41-1.02,2.82-1.53,4.23-.05,0-.11-.02-.16-.03.12-1.46.24-2.93.38-4.57-.92,1.44-1.14,2.99-1.88,4.36.12-1.51.23-3.02.36-4.7-.88,1.49-1.15,3.06-1.85,4.48.1-1.51.2-3.01.29-4.52-.07-.02-.13-.03-.2-.05-.48,1.46-.95,2.92-1.43,4.38-.05,0-.1-.02-.15-.02.07-1.46.14-2.92.21-4.37-.84,1.3-1.07,2.8-1.71,4.16.06-1.48.13-2.96.19-4.43-.81,1.26-1.02,2.73-1.48,4.11-.07-.02-.13-.03-.2-.05.06-1.48.11-2.95.17-4.67-.79,1.56-1.04,3.07-1.56,4.46v-4.45c-.06-.01-.13-.03-.19-.04-.41,1.44-.82,2.88-1.23,4.31-.03,0-.06-.01-.09-.02v-4.61c-.06-.01-.12-.03-.18-.04-.41,1.48-.82,2.96-1.23,4.44-.04,0-.07,0-.11-.01v-4.6c-.75,1.37-.98,2.92-1.33,4.43-.07-.02-.14-.03-.21-.05v-4.43c-.76,1.34-.93,2.83-1.3,4.26-.07-.01-.14-.02-.21-.03v-4.48c-.78,1.35-.91,2.86-1.36,4.29-.11-.78-.16-1.55-.18-2.33-.02-.78,0-1.55,0-2.33-.07,0-.14-.02-.22-.03-.35,1.49-.7,2.98-1.05,4.47-.17-.78-.24-1.55-.26-2.32-.03-.77,0-1.55,0-2.33l-.22-.03c-.34,1.5-.68,2.99-1.02,4.49-.06,0-.12-.01-.18-.02v-5.26c-.84,1.62-.98,3.39-1.34,5.11-.59-2.73-.29-5.47-.06-8.23-.34-.05-.57-.08-.84-.12-.05.19-.09.32-.11.45-.36,2.43-.51,4.88-.4,7.33.06,1.25-.2,2.39-.73,3.5-.29.61-.59,1.21-.92,1.8-1.86,3.35-3.73,6.7-5.59,10.05-.16.29-.3.61-.44.91.07.04.14.07.2.11,2.68-4.31,5.37-8.61,8.17-13.11-.08.65-.14,1.09-.2,1.52.04.02.08.04.12.06.25-.4.49-.8.83-1.36-.07.55-.12.91-.17,1.28.04.02.08.03.12.05.22-.31.43-.61.76-1.08-.07.56-.12.91-.16,1.26.04,0,.08.02.11.03.24-.38.49-.75.84-1.29-.08.56-.13.9-.18,1.24.04.02.08.03.12.05.22-.3.43-.6.79-1.1-.11.6-.17.94-.23,1.27l.13.06c.25-.39.5-.79.86-1.36-.1.61-.17,1.01-.23,1.41.05.01.11.02.16.03l.63-1.05s.08.03.11.04c-.06.37-.12.73-.18,1.1.04.01.08.03.12.04.26-.39.51-.78.77-1.17.03.01.06.03.09.04-.09.4-.18.79-.27,1.19l.14.06c.24-.36.48-.72.8-1.2v1.18c.32-.48.53-.77.84-1.22v.92c.28-.24.44-.38.52-.45.22.08.38.2.54.19.14,0,.35-.25.39-.22.48.39,1.01.12,1.51.18,1.86.24,3.71.55,5.56.83,1.13.17,2.3.18,3.38.5,1.08.31,2.23.21,3.27.7.25.12.67.2.84.06.4-.31.48.42.82.17.26-.2.47.49.79.07.32-.41.35.67.72.16.35.27.69.35.98-.21.03.29.04.45.07.69.26-.14.43-.24.6-.33.07.14.14.29.24.49.24-.22.4-.38.58-.54.03.23.05.44.08.76.26-.24.41-.37.56-.52.03.22.06.44.09.65.07.04.15.09.22.13.18-.21.36-.43.48-.58-.03.19-.06.43-.12.92.36-.42.54-.63.72-.83.02-.02.09,0,.14,0-.05.27-.1.53-.2,1.02.42-.46.67-.73,1.06-1.17-.16.51-.26.82-.36,1.13.04.02.08.04.13.06.27-.29.54-.58.91-.98-.1.4-.16.66-.22.91l.27.21c.21-.32.43-.64.64-.96.02.03.05.05.07.08-.1.29-.2.57-.31.86.04.03.08.05.11.08.21-.18.42-.36.73-.63-.04.36-.07.57-.11.93.41-.45.7-.78,1.11-1.22-.14.47-.24.78-.38,1.25.36-.3.58-.47.88-.73-.06.35-.09.54-.13.79.88-.73,1.33-1.41,1.7-2.66.73-2.5,1.73-4.88,3.08-7.11.12-.2.2-.43.3-.67-.58-.32-.74.13-.95.42-1.06,1.48-1.9,3.08-2.56,4.77-.12.32-.28.62-.42.93Zm-38.5,46.76c-1.53.46-2.8,1.11-3.89,2.1-.72.65-1.01,1.4-.71,2.38.26.87.39,1.79.59,2.75-.92.41-1.78.79-2.64,1.17.02.07.04.13.06.2.89-.16,1.77-.32,2.62-.47.31.47.19.7-.24.87-.69.27-1.37.6-2.05.9.02.07.05.14.07.21.82-.15,1.65-.3,2.46-.45.31.43.2.66-.24.83-.7.28-1.38.59-2.07.89.02.07.04.14.07.21.82-.14,1.64-.29,2.43-.43.28.52,0,.69-.36.84-.67.27-1.34.57-2.01.85.02.07.04.13.07.2.84-.14,1.69-.28,2.53-.42.03.09.07.17.1.26-.59.96-1.89.83-2.84,1.67,1.06-.18,1.91-.32,2.85-.48-.04.91-.75.85-1.2,1.08-.51.26-1.05.46-1.58.68.02.05.04.1.05.16.88-.14,1.77-.29,2.72-.44-.08.92-.8.83-1.24,1.07-.5.27-1.04.46-1.57.69.02.04.03.09.05.13.89-.15,1.78-.31,2.71-.47.08.92-.66.79-1.06,1.02-.46.26-.97.43-1.46.64.02.06.04.12.06.18.81-.13,1.62-.26,2.43-.4.03.09.06.17.1.26-.64.95-1.97.81-2.82,1.57.96.1,1.8-.49,2.92-.22-.92,1-2.2.99-3.28,1.77,1.1-.17,1.99-.31,2.94-.46-.12.96-.88.85-1.36,1.1-.5.26-1.05.44-1.58.65l.05.17c.89-.14,1.78-.29,2.66-.43-.53,1.32-2,1.05-2.93,1.94,1.03-.16,1.91-.29,2.82-.43-.04.85-.09,1.56-.11,2.26-.02.57.17,1.05.65,1.38,1.06.71,2.24.98,3.62,1.05-.14-9.7-.27-19.3-.41-29.03Zm-.56-23.59c.13.66.29,1.2.34,1.76.2,2.03-.37,3.88-1.54,5.52-.72,1-1.54,1.95-2.41,2.83-1.73,1.74-3.3,3.61-4.65,5.67-3.55,5.43-7.11,10.87-10.65,16.3-.17.25-.3.53-.46.84.6.18.99.02,1.28-.41.3-.44.59-.89.88-1.33,3.11-4.71,6.21-9.42,9.32-14.12,1.73-2.61,3.65-5.06,5.89-7.26.75-.74,1.42-1.59,2-2.48.95-1.46,1.43-3.09,1.22-4.86-.11-.92-.34-1.79-1.22-2.45Zm2.05-36.76c-.29,1.06-.52,1.98-.79,2.9-1.79,5.99-4.09,11.79-6.63,17.5-1.41,3.18-2.92,6.31-4.37,9.47-.14.31-.41.61-.23,1.25,5.53-9.91,10.09-19.98,12.91-30.86-.34-.1-.56-.16-.88-.26Zm.59,112.38c-1.33-7.01-3.48-13.79-4.23-20.85-.85.17-.88.17-.81.72.14,1.13.25,2.26.48,3.37.75,3.64,1.54,7.28,2.32,10.91.42,1.93.86,3.86,1.3,5.85h.94Zm-.64-48.6c-.07,0-.15,0-.22,0,.01,9,.46,17.99.66,26.98-.7.28-1.34.54-1.98.8.02.07.04.14.06.21.84-.18,1.69-.35,2.6-.54-.38-9.22-.75-18.34-1.13-27.46Zm-5.59-3.57c.86.01.92-.44.92-.99-.01-2.88-.01-5.75-.02-8.63,0-.19-.05-.37-.09-.63-.66.33-.76.8-.76,1.37-.02,2.63-.07,5.25-.11,7.88,0,.31.04.62.06,1Zm5.3,2.41s.02,0,.03,0v-.87s-.02,0-.03,0v.87Z"/>
    <path class="cls-3" d="m387.22,121.01c.14-.98.26-1.96.44-2.92.05-.29.25-.59.44-.82,2.71-3.24,5.48-6.44,8.15-9.71,2.5-3.05,5.67-4.85,9.52-5.58,3.59-.68,7.17-1.38,10.64-2.56,2.39-.81,4.69-1.82,6.84-3.16,2.16-1.34,4.06-2.98,5.7-4.92,2.86-3.39,5.28-7.04,6.64-11.31,1.33-4.16,1.45-8.29-.28-12.38-2.57-6.06-8.87-10.1-15.42-9.67-7.37.49-13.57,3.53-18.55,9.02-.12.13-.24.26-.4.43-.51-.24-1.03-.46-1.52-.71-.51-.26-.95-.17-1.38.16-.91.69-1.47,1.62-1.77,2.71-.19.67-.01,1.27.52,1.73.43.37.87.73,1.36,1.14-.19.66-.4,1.33-.56,2.01-.42,1.73-.56,3.5-.52,5.28.06,2.31.1,4.61.17,6.92.15,5.27-.54,10.36-3.37,14.94-1.36,2.2-2.91,4.28-4.38,6.42-.08.12-.11.26-.3.31.18-1.77-.03-3.51,1.19-5.05,1.92-2.44,3.33-5.19,4.09-8.23.53-2.11.78-4.26.76-6.43-.02-2.38-.11-4.75-.18-7.13-.08-2.74.02-5.46.78-8.17-.24-.26-.49-.51-.72-.77-.86-.98-1.14-2.1-.8-3.37.35-1.3.97-2.44,1.93-3.38,1.18-1.17,2.51-1.74,4.17-.88.22-.19.44-.37.64-.56,4.79-4.67,10.54-7.47,17.12-8.31,10.32-1.32,18.13,5.73,19.95,13.54.89,3.81.63,7.57-.68,11.21-2.66,7.35-7,13.44-13.77,17.58-3.61,2.2-7.6,3.47-11.7,4.4-2.28.52-4.58.98-6.86,1.47-2.69.58-4.96,1.89-6.74,3.99-2.07,2.44-4.1,4.9-6.17,7.33-1.56,1.84-3.15,3.66-4.72,5.49-.07-.02-.14-.04-.22-.05Z"/>
    <path class="cls-3" d="m432.93,75.42c.02,2.88-.67,5.51-1.97,7.95-2.77,5.19-6.88,8.98-12.31,11.26-2.78,1.16-5.69,1.53-8.65.82-4.55-1.1-7.4-4.04-8.75-8.44-2.31-7.54.74-18.93,10.54-23.26,3.47-1.53,7.07-2.06,10.81-1.29,5.91,1.21,10.47,6.39,10.33,12.96Zm-13.8-11.37c-1.16.16-2.33.24-3.46.5-11.14,2.62-14.67,14.15-12.56,21.63.96,3.38,3.01,5.84,6.42,6.98,2.14.72,4.32.72,6.5.17,4.29-1.1,7.62-3.67,10.49-6.92,2.46-2.78,4.04-6,4.38-9.73.38-4.18-.95-7.69-4.36-10.27-2.18-1.64-4.68-2.3-7.4-2.37Z"/>
    <path class="cls-3" d="m316,82.94c-.06,4.31-1.46,8.38-4.78,11.65-3.01,2.96-6.72,4.01-10.84,3.58-4.68-.49-8.22-2.92-10.5-6.95-3.55-6.27-3.86-12.73-.52-19.22,1.26-2.44,3.09-4.41,5.44-5.86,3.95-2.45,7.96-2.48,12.01-.26,2.35,1.29,4.21,3.13,5.67,5.36,2.27,3.47,3.49,7.27,3.52,11.71Zm-1.98-.67c-.12-3.94-1.43-7.8-4.11-11.17-1.27-1.6-2.82-2.9-4.68-3.78-2.92-1.38-5.82-1.37-8.68.17-2.28,1.23-4.02,3.02-5.27,5.27-1.98,3.54-2.58,7.33-1.92,11.31.47,2.84,1.53,5.45,3.36,7.72,4.93,6.11,14.8,6.07,19.14-1.26,1.44-2.44,2.11-5.09,2.17-8.25Z"/>
    <path class="cls-3" d="m430.42,62.79c2.64,2.07,4.35,4.77,5.01,8.1.7,3.56.18,7-1.15,10.32-1.76,4.38-4.42,8.18-7.8,11.44-2.97,2.86-6.62,4.59-10.5,5.86-3.21,1.05-6.52,1.65-9.81,2.36-1.38.3-2.76.66-4.08,1.16-2.3.87-4.21,2.33-5.8,4.2-2.48,2.92-4.94,5.86-7.41,8.79-.22.27-.46.52-.84.93.14-1.45.25-2.6,1.17-3.66,2.12-2.44,4.11-4.98,6.1-7.53.76-.97,1.44-2.03,2.09-3.08,1.31-2.15,3.2-3.21,5.7-3.36,2.55-.16,5.11-.3,7.63-.65,5.85-.81,11.23-2.81,15.56-6.98,4.06-3.91,6.87-8.55,7.81-14.2.5-3.05.25-6.03-1.07-8.84-.78-1.66-1.71-3.26-2.58-4.88Z"/>
    <path class="cls-3" d="m265.62,49.55c.45-.57.99-.66,1.51-.61,1.09.11,2.21.18,3.25.49,1.9.56,3.78,1.2,5.61,1.95,3.4,1.4,6.29,3.53,8.67,6.35.8.95,1.64,1.87,2.52,2.74,1.12,1.12,2.45,1.91,4.01,2.31,1.14.3,2.26.08,3.37-.13,2.41-.45,4.82-.81,7.29-.57,3.71.37,7.02,1.69,9.79,4.21,3.07,2.78,5.13,6.21,6.4,10.14.15.47.16.86-.15,1.29-.35.48-.63,1.01-1.04,1.68-.13-.46-.21-.75-.29-1.04-.94-3.78-2.62-7.21-5.2-10.13-3.97-4.5-8.92-5.92-14.71-4.34-1.06.29-2.11.65-3.19.82-2.72.45-5.05-.23-6.8-2.5-1.56-2.02-3.14-4.04-5.09-5.72-3.94-3.4-8.47-5.5-13.67-6.13-.79-.09-1.62-.12-2.3-.83Z"/>
    <path class="cls-3" d="m429.61,64.73c-1.86-1.28-3.76-2.37-5.95-2.85-6.19-1.34-11.76.09-16.65,4.03-3.84,3.09-5.96,7.23-6.93,12-.66,3.25-.6,6.48.4,9.67.55,1.75,1.38,3.34,2.54,4.76.18.22.35.44.52.67,0,.01-.02.05-.06.18-.77-.6-1.44-1.26-2.01-2.01-1.95-2.6-3.02-5.51-3.04-8.79-.02-3.07.38-6.07,1.41-8.99.61-1.72.31-3.36-.68-4.87-.17-.25-.35-.49-.43-.87.54.24,1.08.46,1.61.72,1.17.56,1.65.5,2.53-.46,1.55-1.68,3.25-3.17,5.15-4.43,3.02-2,6.32-3.25,9.94-3.37,3.99-.14,7.66.89,10.71,3.61.34.3.63.66.95,1Z"/>
    <path class="cls-3" d="m317.74,67.06c-.81-.96-1.54-1.82-2.27-2.68,1.16-2.54,10.76-10.97,13.73-12.05-.1,1.3-.21,2.6-.28,3.89-.02.4-.2.64-.5.86-.75.54-1.49,1.08-2.21,1.65-2.82,2.22-5.38,4.71-7.7,7.45-.23.27-.46.53-.76.87Z"/>
    <path class="cls-3" d="m317.02,87c.55.38,1.07.74,1.7,1.18-.11.91-.23,1.92-.36,2.93-.16,1.34-.38,2.67-.49,4.01-.29,3.56.6,6.85,2.55,9.81,1.24,1.89,2.68,3.66,4.12,5.42,1.67,2.03,3.4,4,5.17,5.94.55.6.94,1.22,1.05,2.02.05.38.13.75.21,1.24-.2-.14-.33-.2-.42-.3-4.28-4.6-8.45-9.3-11.89-14.58-1.52-2.33-2.7-4.83-3.23-7.59-.3-1.59-.31-3.18.27-4.72.58-1.54.91-3.13,1.14-4.74.03-.2.11-.4.18-.61Z"/>
    <path class="cls-3" d="m386.7,50.83c.24-.4.56-.17.86.02,1.91,1.22,3.86,2.38,5.71,3.69,2.96,2.09,5.64,4.51,8.2,7.28-.48.44-.93.86-1.29,1.19-.79,0-1.47-.06-2.12.02-.5.06-.69-.27-.97-.51-2-1.69-3.98-3.41-6.01-5.07-.82-.67-1.73-1.23-2.63-1.8-.42-.27-.65-.58-.73-1.08-.16-.94-.38-1.87-.62-2.8-.08-.31-.26-.6-.4-.94Z"/>
    <path class="cls-3" d="m330.01,115.35c-.24-.25-.49-.49-.71-.76-2.27-2.72-4.57-5.42-6.8-8.18-1.9-2.35-3.24-4.99-3.67-8.02-.12-.87-.16-1.76-.17-2.65-.03-2.52.38-5,.71-7.5h1.96c-.15,1.28-.28,2.47-.42,3.65-.27,2.29-.49,4.58,0,6.88.5,2.38,1.61,4.46,3.1,6.34,1.61,2.02,3.26,4.02,4.92,6,.49.59.87,1.15.91,1.96.03.73.21,1.46.33,2.19-.05.03-.11.06-.16.08Z"/>
    <path class="cls-3" d="m305.67,98.82c-1.72,1.12-3.6,1.47-5.58,1.29-4.54-.42-8.07-2.74-10.64-6.34-3.14-4.42-4.83-9.38-4.38-14.9.17-2.08.72-4.05,1.9-5.8.34-.51.78-.95,1.3-1.58-.54,1.76-1.15,3.25-1.43,4.79-1.19,6.49,0,12.47,4.34,17.56,3.62,4.25,8.34,5.82,13.86,5.01.14-.02.28-.04.42-.05.07,0,.14.02.21.03Z"/>
    <path class="cls-3" d="m385.46,45.82c7.26,3.47,13.44,8.04,18.83,13.86-.48.35-.9.66-1.38,1.01-.22-.19-.45-.35-.63-.54-4.52-4.72-9.67-8.62-15.47-11.64-.48-.25-.78-.55-.9-1.08-.11-.47-.26-.93-.44-1.6Z"/>
    <path class="cls-3" d="m326.83,49.54c.49.41.93.77,1.43,1.19-5.34,3.37-10.03,7.44-14.16,12.34-.47-.38-.89-.73-1.38-1.13,4.1-4.9,8.79-9.02,14.11-12.4Z"/>
    <path class="cls-3" d="m398.08,89.2c1.05,4.47-.03,8.45-3.04,11.95.57-1.24,1.24-2.45,1.69-3.73.46-1.29.8-2.64,1.02-4,.22-1.39.23-2.81.34-4.22Z"/>
    <path class="cls-3" d="m328.63,97.57c.05.25.09.39.09.53,0,.17-.02.35-.04.67-.72-.08-1.41-.15-2.09-.23-1.23-.14-2.46-.31-3.69-.43-.44-.05-.66-.21-.52-.81,2.07-.05,4.16.25,6.25.28Z"/>
    <path class="cls-3" d="m322.22,94.67c-.03-.4,0-.71.41-.65,1.99.27,3.98.55,6,.84v1.15c-2.21-.36-4.32-.84-6.41-1.33Z"/>
    <path class="cls-3" d="m323.19,100.48c1.9-.07,3.72-.14,5.61-.22.03.44.05.78.08,1.18-.95,0-1.82.01-2.69,0-.74-.02-1.48-.09-2.22-.11-.52,0-.79-.22-.79-.86Z"/>
    <path class="cls-3" d="m322.67,90.64c2.03.48,3.94.92,5.9,1.38v1.17c-1.91-.58-3.76-1.15-5.61-1.7-.44-.13-.41-.39-.29-.86Z"/>
    <path class="cls-3" d="m307.84,102.08c.8-.05,1.6-.13,2.4-.15.81-.02,1.63,0,2.45.05,1.31.09,2.26.77,2.97,2.14-2.5-1.41-5.16-1.55-7.79-1.83,0-.07-.02-.14-.03-.21Z"/>
    <path class="cls-3" d="m284.07,62.79c2.1,3.11,1.58,6.34.51,9.6.42-3.23.35-6.44-.51-9.6Z"/>
    <path class="cls-3" d="m401.28,120.49c-2.72-1.16-5.44-2.32-8.16-3.48.17-.55.44-.68.9-.44.47.25.94.48,1.42.72,1.98,1.01,3.97,2.01,5.95,3.02-.03.06-.07.12-.1.18Z"/>
    <path class="cls-3" d="m323.58,87.9c.36-.04.76-.2,1.08-.1,1.28.37,2.54.82,3.83,1.25v1.13c-1.7-.68-3.31-1.32-4.92-1.97,0-.1,0-.2,0-.31Z"/>
    <path class="cls-3" d="m328.94,104.19c-1.16.05-2.14.09-3.12.15-.59.04-.77-.37-1.02-.9,1.37-.16,2.68-.32,4.08-.48.02.46.04.79.05,1.23Z"/>
    <path class="cls-3" d="m403.56,117.01c-2.71-.89-5.42-1.77-8.13-2.66.07-.76.49-.59.89-.42,2.03.82,4.06,1.64,6.09,2.46.42.17.84.35,1.27.52-.04.03-.07.07-.11.1Z"/>
    <path class="cls-3" d="m393.36,91.34c.22.63.07,1-.54,1.16-.84.23-1.67.48-2.51.73-.26-1.05-.24-1.09.6-1.31.81-.21,1.62-.39,2.45-.58Z"/>
    <path class="cls-3" d="m393.69,84.87c-.13.23-.21.57-.41.68-.95.53-1.93,1.01-3.02,1.56-.06-.41-.1-.69-.15-1.05,1.14-.49,2.23-.96,3.32-1.42.09.08.17.15.26.23Z"/>
    <path class="cls-3" d="m393.53,88.06c.21.55.16.86-.26,1.03-.95.38-1.9.76-2.85,1.13-.31-.97-.3-1.03.46-1.29.86-.3,1.74-.57,2.65-.87Z"/>
    <path class="cls-3" d="m392.9,94.47c-.17,1.09-.17,1.1-.97,1.26-.57.12-1.15.22-1.79.33v-1.15c.87-.14,1.75-.28,2.76-.45Z"/>
    <path class="cls-3" d="m390.23,83.68c-.27-.68-.11-1.04.44-1.31.9-.44,1.78-.93,2.67-1.4.06.05.12.1.18.15-.12.24-.18.58-.37.71-.93.63-1.89,1.19-2.93,1.84Z"/>
    <path class="cls-3" d="m393.62,76.98c-.04.12-.04.3-.12.36-1.1.86-2.21,1.71-3.37,2.6-.24-.44-.3-.76.07-1.01,1.08-.72,2.17-1.42,3.25-2.13.06.06.12.11.17.17Z"/>
    <path class="cls-3" d="m397.76,111.19c.2-.07.43-.24.6-.19,2.05.61,4.1,1.24,6.1,2.03-2.22-.52-4.44-1.03-6.66-1.55-.01-.1-.02-.19-.04-.29Z"/>
    <path class="cls-3" d="m329.16,106.75c-1.51.49-1.57.47-2.27-.64.7-.15,1.36-.29,2.12-.45.05.39.1.71.15,1.09Z"/>
    <path class="cls-3" d="m328.48,85.89v1.07c-.82-.4-1.54-.76-2.31-1.14.13-.53.29-.83.86-.55.44.21.9.39,1.44.62Z"/>
    <path class="cls-3" d="m389.78,75.55c.1-.23.13-.54.3-.69.97-.8,1.97-1.56,3.06-2.42-.19.71-1.66,2.14-3.36,3.1Z"/>
    <path class="cls-3" d="m389.91,98.71c.03-.37.05-.68.07-1.07.62-.05,1.2-.1,1.79-.16-.15,1.24-.26,1.31-1.86,1.23Z"/>
    <path class="cls-3" d="m317.63,120.38c2.03-1.3,3.97-2.16,4.58-2.03-.52.51-3.48,1.82-4.58,2.03Z"/>
    <path class="cls-3" d="m319.86,115.56c-1.48.49-2.97.98-4.69,1.54,1.57-.92,3.93-1.79,4.69-1.54Z"/>
    <path class="cls-3" d="m405.06,108.96c-.3-.01-.61,0-.9-.05-1.18-.17-2.36-.36-3.55-.54,0-.07-.02-.15-.03-.22.19-.06.39-.19.57-.15,1.31.26,2.62.56,3.93.84,0,.04,0,.08-.01.12Z"/>
    <path class="cls-3" d="m392.77,67.73c-.99,1.06-1.98,2.11-3.09,3.3.16-.84,1.35-2.08,3.09-3.3Z"/>
    <path class="cls-3" d="m314.57,113.03c.89-.41,1.75-.86,2.71-.91.02.08.04.16.06.24-.92.22-1.84.45-2.77.67Z"/>
    <path class="cls-3" d="m389.8,101.42c-.05-.46-.07-.75-.11-1.09h.79c-.22.35-.41.65-.69,1.09Z"/>
    <path class="cls-3" d="m328.5,83.4q-.66-.37-.1-1.1c.04.45.07.74.1,1.1Z"/>
    <path class="cls-3" d="m329.25,108.39c.03.22.05.4.08.67q-.38-.37-.08-.67Z"/>
    <path class="cls-3" d="m338.4,47.35c-.03-.31-.05-.63-.08-.94.03,0,.05,0,.08,0,0,.31,0,.62,0,.93,0,0,0,0,0,0Z"/>
    <path class="cls-3" d="m378.76,147.94c-.18.13-.36.36-.55.38-1.16.1-2.32.16-3.52.23.02-.13,0-.27.06-.31.88-.61.94-1.46.83-2.43-.14-1.23-.17-2.46-.25-3.7-.03-.38-.1-.75-.34-1.14-.38,1.31-.76,2.62-1.16,3.92-.09.31-.04.73-.49.84,0,0,.02.03.02.03.54-1.87,1.07-3.74,1.61-5.62.14-.5.28-1-.09-1.73-.17.54-.28.89-.39,1.24-.78,2.69-1.56,5.38-2.34,8.07-.05.17-.07.36-.16.51-.12.19-.26.44-.44.51-.36.13-.47-.22-.58-.47-.83-2-1.65-4-2.49-5.99-.13-.31-.28-.61-.43-.91-.08.02-.15.03-.23.05.13,2.02.27,4.05.4,6.07-.04,0-.08,0-.12.01-.06-.45-.14-.89-.17-1.34-.15-1.94-.25-3.89-.43-5.83-.04-.5-.27-.98-.42-1.47-.07.02-.15.03-.22.05,0,.3-.02.6,0,.89.12,1.91.26,3.82.39,5.73.02.32.07.63.1.95.08,1.08.43,2,1.75,2.44-1.44.1-2.66.18-4.01.27.11-.17.15-.31.24-.36,1-.67,1.28-1.67,1.21-2.79-.17-2.76-.35-5.52-.56-8.28-.02-.28-.22-.58-.4-.81-.21-.26-.49-.47-.91-.85,1.7-.11,3.19-.21,4.92-.33-.49.58-.82.97-1.2,1.42,1.12,2.7,2.24,5.41,3.39,8.22.14-.21.29-.33.28-.43-.04-.63.31-1.13.48-1.68.18-.61.34-1.23.52-1.84.17-.58.34-1.15.51-1.73.18-.61.3-1.25.54-1.84.33-.8.24-1.43-.52-1.92-.08-.05-.13-.16-.23-.31.75-.39,1.53-.17,2.27-.26.74-.09,1.48-.13,2.35-.2-.14.26-.18.47-.31.58-.66.57-.75,1.27-.68,2.1.22,2.79.38,5.59.53,8.39.05.87.38,1.48,1.26,1.72l-.04-.04Z"/>
    <path class="cls-3" d="m350.79,136.08s.04-.08.06-.08c2.05-.05,4.12-.13,6.13.33,1.72.39,2.87,1.52,3.43,3.18.73,2.2.64,4.42-.24,6.55-.76,1.84-2.24,2.84-4.2,2.95-1.87.1-3.75.02-5.63.02.02-.11,0-.21.04-.23.86-.47,1-1.21,1-2.13,0-2.55.09-5.11.14-7.66q.03-1.7-.73-2.93Zm2.79.87c-.03.12-.1.25-.1.39-.05,3.51-.1,7.02-.13,10.53,0,.16.15.32.23.48.07-.01.15-.02.22-.04.43-3.55.14-7.14.35-10.7.87-.17,1.63-.17,2.46.2-.81-.04-1.52-.07-2.39-.11v10.6c1.95.19,3.19-.58,3.86-2.48.67-1.92.73-3.91.29-5.87-.54-2.41-2.28-3.47-4.8-3Z"/>
    <path class="cls-3" d="m387.46,142.8c.03-.36.25-.78-.41-1.07-.26.94-.38,1.86-.46,2.79-.09,1.08.46,1.8,1.4,2.55-.85.16-1.52.3-2.19.41-.7.11-1.4.2-2.18.23,1.78-1.78,2.21-4.05,2.53-6.5-.45-.14-.9-.29-1.45-.47.12-.45.26-.94.42-1.53.45.22.84.42,1.28.64.3-.79-.66-.69-.78-1.24.35.15.66.28,1.05.45.24-1.21.44-2.36.69-3.5.15-.71-.57-.82-.86-1.39,1.33-.37,2.67-.49,3.99-.68.02.14.06.23.03.26-.61.71-.47,1.37.03,2.1.52.76.92,1.59,1.39,2.39.12.2.27.38.51.71.11-.36.17-.58.24-.79,0,0-.03.02-.03.02.46.01.48,0,1-.4.31.51.61,1.02.94,1.57-.54.21-1.04.4-1.66.64.91,1.61,1.7,3.15,2.63,4.6.26.41.91.57,1.37.84-.41.39-2.65.83-4.46.84.32-.4.6-.74.98-1.21-.63-1.06-1.28-2.15-1.98-3.33-.81.62-1.14,1.52-1.68,2.41-.62-.61-1.21-1.19-1.83-1.8-.2.17-.36.31-.53.45l.02.02Zm.71-2.46c-.39-.23-.18-.56-.13-.84.14-.76.31-1.52.48-2.27.09-.4.12-.77-.38-1.14-.29,1.39-.58,2.72-.84,4.05-.03.14.06.36.17.46.66.61,1.35,1.2,2.02,1.79.07-.03.13-.06.2-.09-.03-.24-.07-.49-.1-.73.66-.02,1.34-.82,1.06-1.35-.52-1.02-1.11-2-1.68-3-.08.01-.16.03-.24.04-.19,1.02-.38,2.05-.57,3.07Z"/>
    <path class="cls-3" d="m317.06,137.2c-.08.16-.09.26-.14.27-1.18.4-1.5,1.37-1.68,2.47-.14.8-.37,1.59-.59,2.37-.17.59-.13,1.1.31,1.56.11.12.18.28.33.53-.4-.06-.69-.07-.95-.14-1.62-.4-3.22-.86-4.85-1.2-3.22-.66-4.53-3.57-4.5-5.81.02-1.41.35-2.74,1.02-3.98,1.42-2.67,4.41-3.82,7.26-2.79.63.23,1.23.55,1.82.86.78.41,1.55.84,2.72.71-.87,1.01-1.59,1.85-2.44,2.82-.09-.46-.15-.72-.19-.99-.36-2.39-2.9-3.64-4.99-2.39-.64.39-1.24.99-1.63,1.63-1.07,1.73-1.52,3.67-1.37,5.7.13,1.61.92,2.83,2.44,3.46.84.35,1.74.56,2.77.88.45-1.79.87-3.48,1.31-5.25-1.27-.34-2.42-.66-3.56-.97.01-.06.03-.12.04-.18,1.18.28,2.35.57,3.52.85.21-.54-.08-.63-.35-.7-.86-.22-1.72-.42-2.58-.66-.3-.08-.62-.18-.88-.36-.59-.41-.54-1.37.07-1.7.35-.19.71-.19.93.18.21.36.15.68-.32.82-.08.02-.15.1-.4.26,2.38.6,4.6,1.16,6.88,1.74Z"/>
    <path class="cls-3" d="m406.51,143.91c-.4-.13-.77-.2-1.22-.07-1.11.33-2.25.56-3.65.89,1.33-1.2,1.15-2.48.84-3.78-.6-2.48-1.22-4.95-1.8-7.44-.14-.6-.39-1.04-1.01-1.23-.16-.05-.3-.17-.64-.37,1.6-.4,3-.75,4.62-1.15-.38.5-.62.82-.94,1.24,2.26,2.61,4.53,5.22,6.86,7.91.07-.22.13-.32.11-.4-.13-.68-.61-1.22-.52-2.04.08-.73-.33-1.5-.52-2.26-.18-.72-.35-1.45-.53-2.17-.03-.1-.07-.2-.1-.3-.29-1.08-.59-2.15-1.89-2.59,1.17-.29,2.35-.58,3.52-.88-1.21,1.25-.96,2.66-.6,4.1.66,2.65,1.31,5.3,1.97,7.94.08.31.13.62.2.98-.26.1-.48.19-.71.27-.6.22-1.03.05-1.46-.46-1.72-2.03-3.49-4.02-5.24-6.02-.25-.29-.52-.56-.81-.88-.16.85.94,5.36,1.78,7.44-.68-.65-.81-1.55-1.02-2.39-.45-1.78-.88-3.56-1.3-5.34-.11-.48-.33-.84-.94-1.23.57,2.32,1.07,4.41,1.61,6.48.19.71.45,1.41.74,2.09.24.57.62,1.03,1.32,1.07.43.2.86.39,1.29.59l.03-.03Z"/>
    <path class="cls-3" d="m332.4,139.45c-.02,1.37-.26,2.69-.82,3.94-1.08,2.42-3.15,3.61-5.62,3.26-2.33-.33-4.29-2.25-4.65-4.64-.29-1.94-.02-3.83.86-5.6,1.24-2.5,3.62-3.58,6.29-2.91,2.12.53,3.58,2.26,3.85,4.58.05.46.06.92.09,1.38Zm-2.01-.7c-.07-.87-.06-1.55-.18-2.2-.37-2.04-2.61-3.06-4.34-2.01-.69.42-1.14,1.05-1.47,1.77-.84,1.84-1.17,3.79-1.16,5.79,0,.66.15,1.35.4,1.96.84,2.05,3.47,2.45,4.84.72.49-.62.88-1.39,1.1-2.15.37-1.32.58-2.69.82-3.87Z"/>
    <path class="cls-3" d="m340.11,147.25c.07.11.11.3.2.32,1.48.34,3.46.26,4.24-1.81.05-.13.14-.24.25-.44.47,1.16.9,2.25,1.4,3.49-3.35-.3-6.67-.59-9.98-.88.01-.12,0-.23.03-.25,1.04-.46,1.18-1.33,1.24-2.35.17-2.69.4-5.37.68-8.05.08-.74-.02-1.31-.58-1.8-.13-.11-.21-.26-.48-.6,1.58.13,2.95.24,4.33.35-.01.13,0,.24-.03.26-1.03.6-1.28,1.53-1.36,2.66-.19,2.79-.47,5.58-.71,8.37-.03.3,0,.61,0,1.04.36-.14.57-.22.78-.3,0,0-.01-.02-.01-.02Z"/>
    <path class="cls-3" d="m427.14,119.67c-1.02,5.36-2.07,10.71-1.17,16.41-2.81-3.75-2.54-11.7,1.17-16.41Z"/>
    <path class="cls-3" d="m294,135.56c.73-5.52-.31-10.88-1.5-16.31,1.35.97,2.92,5.05,3.18,7.93.27,3.04-.23,6.46-1.68,8.38Z"/>
    <path class="cls-3" d="m378.8,147.98c-.51-.55-.6-1.21-.64-1.94-.16-2.83-.36-5.66-.58-8.48-.06-.69.09-1.17.83-1.39-.57.47-.63,1.03-.57,1.74.22,2.65.38,5.3.48,7.96.03.88.25,1.59.95,2.13.31.24.6.49,1.08.88-1.84.45-3.46.27-5.05.4.41-.2.86-.18,1.3-.2.5-.03.99-.05,1.49-.09.48-.04.96-.11,1.67-.19-.44-.37-.72-.6-1-.84,0,0,.04.04.04.04Z"/>
    <path class="cls-3" d="m336.48,148.61c3.52.3,7.03.6,10.53.89-.03.03-.11.15-.18.15-3.45-.27-6.91-.54-10.36-.82,0-.07.01-.15.02-.22Z"/>
    <path class="cls-3" d="m309.17,143.66c1.88.45,3.77.92,5.66,1.35.4.09.82.07,1.23.12.06,0,.1.16.21.37-.24-.03-.38-.04-.52-.07-1.95-.48-3.91-.95-5.85-1.44-.25-.06-.47-.23-.71-.35l-.02.02Z"/>
    <path class="cls-3" d="m309.38,133.26c-.86,1.91-1.33,3.91-1.45,6.01-.17-2.16.29-4.16,1.45-6.01Z"/>
    <path class="cls-3" d="m358.06,149.21c-.47.57-1.19.49-1.81.61-.62.12-1.27.08-1.91.09-1.2.01-2.4,0-3.59-.09,2.45-.22,4.93.18,7.33-.59l-.02-.02Z"/>
    <path class="cls-3" d="m330.49,146.16c-1.36,1.46-3.76,1.83-5.56.88,2.66.49,3.36.37,5.56-.88Z"/>
    <path class="cls-3" d="m314.98,143.37c.42-1.59.82-3.19,1.26-4.78.04-.16.31-.25.56-.45-1.01,1.72-1.03,3.61-1.82,5.22Z"/>
    <path class="cls-3" d="m398.61,146.27c-1.76.28-3.51.57-5.27.85-.01-.06-.02-.12-.03-.18,1.19-.2,2.39-.39,3.58-.62.44-.08.86-.27,1.3-.37.13-.03.29.08.44.13,0,.06,0,.13-.01.19Z"/>
    <path class="cls-3" d="m369.86,149.48c-.66.36-2.69.57-4.81.38,1.6-.13,3.19-.25,4.81-.38Z"/>
    <path class="cls-3" d="m389.21,147.7c-.1.03-.19.06-.29.08-1.59.27-3.18.53-4.8.68.12-.06.23-.14.35-.16,1.53-.26,3.07-.51,4.61-.76.05.05.09.11.14.16Z"/>
    <path class="cls-3" d="m310.35,132.3c1.39-1.02,2.72-.88,3.82.38-1.2-.95-2.47-1.06-3.82-.38Z"/>
    <path class="cls-3" d="m333.11,141.45c-.05-1.44-.1-2.94-.15-4.29.48,1.33.55,2.83.15,4.29Z"/>
    <path class="cls-3" d="m406.48,143.93c.15.06.29.13.69.3-1.49.38-2.73.69-3.96,1-.02-.06-.03-.12-.05-.17.83-.22,1.66-.42,2.48-.67.31-.1.58-.32.87-.48,0,0-.03.03-.03.03Z"/>
    <path class="cls-3" d="m411.74,140.79c.17.7.34,1.39.54,2.18-.7.18-1.32.34-1.95.5-.01-.05-.03-.1-.04-.15.56-.17,1.12-.35,1.71-.54-.14-.69-.27-1.33-.4-1.96.05,0,.1-.02.15-.03Z"/>
    <path class="cls-3" d="m361.43,145.21c.07-1.52.13-2.91.19-4.31.13,1.4.24,2.81-.19,4.31Z"/>
    <path class="cls-3" d="m394.08,140.42c.15.37.28.68.41.99-.04.02-.08.04-.13.06-.2-.35-.4-.71-.66-1.17.75-.16,1.43-.3,2.1-.45-.43.58-1.08.3-1.72.57Z"/>
    <path class="cls-3" d="m409.69,130.74c.09,1.17.18,2.34.27,3.51-.03,0-.05.02-.08.02-.15-.93-.32-1.86-.42-2.8-.02-.22.17-.47.26-.71l-.02-.02Z"/>
    <path class="cls-3" d="m358.08,149.23c.81-.61,1.61-1.23,2.42-1.84,0,0-.02-.02-.02-.02-.56.94-1.21,1.75-2.41,1.84,0,0,.02.02.02.02Z"/>
    <path class="cls-3" d="m340.55,139.77c.11-1.04.21-2.08.32-3.12.05,0,.1,0,.14.01-.07.92-.14,1.85-.23,2.77-.01.11-.16.21-.24.32,0,0,.02.02.02.02Z"/>
    <path class="cls-3" d="m387.44,142.78v2.72c-.44-.89-.14-1.79.02-2.69,0,0-.02-.02-.02-.02Z"/>
    <path class="cls-3" d="m340.11,144.66c.05-.56.08-1.12.16-1.67.03-.22.18-.41.28-.62v-.02c-.06.52-.09,1.05-.17,1.56-.04.25-.18.49-.28.73v.02Z"/>
    <path class="cls-3" d="m404.46,132.85c-.42-.25-.8-.53-.72-1.1.24.37.48.74.72,1.1Z"/>
    <path class="cls-3" d="m340.1,144.65c0,.86,0,1.73,0,2.6,0,0,.01.02.02.03,0-.86,0-1.73,0-2.6,0,0-.01-.02-.01-.02Z"/>
    <path class="cls-3" d="m340.55,142.37c0-.86,0-1.73,0-2.59,0,0-.02-.02-.02-.03,0,.86,0,1.73,0,2.6,0,0,.01.02.01.02Z"/>
    <path class="cls-3" d="m407.12,136.11c-.26-.29-.52-.57-.78-.86.05-.04.09-.08.14-.13.26.29.51.58.77.87-.04.04-.08.08-.12.12Z"/>
    <path class="cls-3" d="m372.66,148.9c-.09.45-.24.82-.87.64.32-.22.61-.41.89-.61,0,0-.02-.03-.02-.03Z"/>
    <path class="cls-3" d="m317.08,133.85c.25-.28.49-.56.74-.83.04.04.09.07.13.11-.24.29-.49.58-.73.87-.05-.05-.09-.1-.14-.15Z"/>
    <path class="cls-3" d="m405,133.41c.25.29.5.57.75.86l-.13.12c-.26-.29-.52-.57-.78-.86.05-.04.11-.08.16-.12Z"/>
    <path class="cls-3" d="m309.19,143.64c-.5.18-.91,0-1.24-.42.4.15.81.29,1.22.44,0,0,.02-.02.02-.02Z"/>
    <path class="cls-3" d="m373.08,147.4c-.14.5-.28,1-.42,1.5,0,0,.02.03.03.03-.14-.58.01-1.08.41-1.51,0,0-.02-.02-.02-.02Z"/>
    <path class="cls-3" d="m408.4,137.59c-.19-.22-.37-.44-.56-.65.03-.03.07-.06.1-.09.2.21.39.41.59.62-.04.04-.09.08-.13.12Z"/>
    <path class="cls-3" d="m331.9,144.56c.15-.36.29-.71.44-1.07,0,.42-.02.84-.46,1.05l.02.02Z"/>
    <path class="cls-3" d="m360.5,147.39c.12-.38.25-.76.37-1.13l.21.1c-.2.34-.41.67-.61,1.01,0,0,.02.02.02.02Z"/>
    <path class="cls-3" d="m373.1,147.42c.09-.55.19-1.1.28-1.65,0,0-.02-.03-.03-.03.26.61-.12,1.11-.27,1.66,0,0,.02.03.02.03Z"/>
    <path class="cls-3" d="m315.8,135.32c.2-.21.4-.42.6-.63.03.03.07.06.1.09-.18.22-.36.44-.54.65-.05-.04-.1-.08-.16-.12Z"/>
    <path class="cls-3" d="m409.72,130.77c-.06-.46.27-.56.65-.6-.22.19-.45.39-.67.58,0,0,.03.02.03.02Z"/>
    <path class="cls-3" d="m391.52,133.76c-.14.22-.29.44-.43.66-.04-.02-.07-.04-.11-.05.12-.24.25-.48.37-.71.06.04.11.07.17.11Z"/>
    <path class="cls-3" d="m391.6,136.56c-.14-.25-.28-.49-.41-.74.04-.02.09-.05.13-.07.14.25.27.49.41.74l-.13.07Z"/>
    <path class="cls-3" d="m392.67,138.15c-.22-.25-.45-.5-.67-.75l.2-.13c.15.3.3.61.44.91,0,0,.03-.03.03-.03Z"/>
    <path class="cls-3" d="m394.62,138.04c.09.17.19.34.28.51l-.07.08c-.07-.07-.15-.13-.2-.21-.06-.1-.08-.23-.12-.34l.1-.04Z"/>
    <path class="cls-3" d="m394.94,142.14c.14.24.28.48.42.71-.04.02-.09.05-.13.07-.14-.24-.28-.48-.41-.72.04-.02.08-.05.13-.07Z"/>
    <path class="cls-3" d="m396.08,144.44c-.14-.25-.28-.49-.42-.74.04-.02.09-.05.13-.07.14.25.27.49.41.74l-.13.07Z"/>
    <path class="cls-3" d="m345.94,145.83c.08.21.15.42.23.62-.04.01-.08.03-.12.04-.08-.21-.16-.41-.24-.62.04-.02.09-.03.13-.05Z"/>
    <path class="cls-3" d="m331.88,144.54c-.11.27-.23.54-.34.82-.1-.39.08-.62.37-.8,0,0-.02-.02-.02-.02Z"/>
    <path class="cls-3" d="m345.96,169.18c.64-1.33.61-2.57-.04-3.15.75-.45.92-1.26.47-2.37,1.01-.55,2.07-.64,3.15-.3.67.21,1.23.57,1.33,1.35.09.74-.28,1.2-1,1.45.26.25.47.44.66.65.45.49.56,1.06.32,1.68-.24.64-.78.9-1.42.95-.42.03-.85-.01-1.27-.05-.7-.06-1.41-.13-2.21-.21Zm1.22-.35c.95.31,1.74.44,2.42-.24.34-.34.43-1.23.12-1.6-.58-.69-1.39-.7-2.32-.66-.07.83-.14,1.63-.22,2.5Zm.25-2.93c.62,0,1.18.07,1.71-.02.59-.1.9-.72.79-1.31-.11-.63-.66-1.05-1.39-1.06-.71,0-.93.17-1.02.9-.06.45-.06.9-.1,1.48Z"/>
    <path class="cls-3" d="m379.12,165.7c.39.94-.03,1.98.97,2.68-.59.1-1.1.19-1.76.31.48-.94.08-1.73-.05-2.54-.03-.16-.36-.27-.55-.41.56-.76.49-2.02-.23-3.04.14-.05.26-.13.39-.15.35-.05.7-.07,1.06-.11-.02.44-.08.84-.06,1.23.02.39.11.77.18,1.19.69.34,1.35.22,2.07-.07.05-.88-.04-1.73-.55-2.63.52-.07.99-.13,1.48-.19-.26,1.18.34,5.08.91,5.97-.5.09-.97.18-1.46.27.18-1.08.09-1.77-.38-2.79-.58.08-1.2.17-2,.28Z"/>
    <path class="cls-3" d="m327.08,162.55c.19.26.32.43.45.59.43.56.48,1.18.16,1.79-.34.66-.97.84-1.63.71-1.14-.22-2.25-.52-3.55-.83.76-.44.77-1.08.93-1.64.15-.53.37-1.07-.26-1.48.81-.23,1.13-.98.96-2.26,1.13-.29,2.23-.22,3.26.37.58.33.97.81.91,1.55-.06.73-.54,1.03-1.23,1.2Zm-3.13,2.26c.59.13,1.05.29,1.53.33.73.06,1.17-.28,1.33-.93.18-.74-.03-1.23-.74-1.54-.44-.19-.91-.29-1.44-.46-.23.89-.44,1.66-.69,2.6Zm1.31-5.03c-.15.62-.32,1.28-.48,1.91.91.54,1.78.59,2.24.18.4-.35.51-.96.27-1.45-.3-.6-.88-.8-2.03-.65Z"/>
    <path class="cls-3" d="m360.27,167.18c.39-.18.54-.26.73-.34,0-.45.02-.9,0-1.36-.03-.41-.1-.82-.17-1.28.94-.52,1.95-.7,3.03-.43.64.16,1.21.45,1.33,1.2.11.74-.3,1.2-.89,1.54-.18.1-.36.21-.56.32.35,1.18,1.12,2.06,1.88,2.99-.42.23-.78.44-1.22.68-.52-1.16-.52-2.5-1.36-3.53-.34.08-.68.16-1.13.26.07.85.14,1.67.21,2.57h-1.18c.05-.47.13-.97.15-1.48.02-.48.03-.99-.81-1.14Zm1.69-.55c.85.06,1.39-.08,1.82-.46.64-.56.63-1.41-.03-1.93-.53-.42-1.15-.39-1.79.06v2.33Z"/>
    <path class="cls-3" d="m339.58,162.63c1.01-.37,2.07-.34,3.12.11.58.25,1.05.68,1.04,1.36,0,.67-.45,1.09-1.06,1.33-.23.09-.45.18-.71.29.2,1.18.74,2.17,1.42,3.21-.45.17-.86.31-1.32.48-.21-1.25-.42-2.44-.63-3.69-.49.03-.83.04-1.3.07-.07.88-.13,1.71-.2,2.63-.36-.04-.8-.09-1.24-.14.16-.54.34-1.01.43-1.5.12-.69.07-.74-.42-1.21,1.15-.7.71-1.86.88-2.93Zm.63,2.68c.38.02.65.08.92.05,1.06-.11,1.69-.68,1.64-1.44-.06-.79-.81-1.27-1.9-1.22-.06,0-.12.06-.29.15-.11.72-.23,1.51-.37,2.46Z"/>
    <path class="cls-3" d="m334.1,165.16c-.42.3-.71.5-1.04.73-.27-.43-.53-.84-.79-1.25-.79.75-.88,1.01-.77,2.3-.52-.1-1.02-.2-1.51-.29.54-.65,1.05-1.26,1.55-1.88.35-.43.33-.82-.14-1.1.18-.54.46-.5.79-.23.97-1.08,1.16-1.46,1.13-2.32.52.09,1.03.18,1.62.28-.58.87-.07,1.62-.02,2.43.29.21,1.06-.13.85.7-.19.06-.39.12-.72.23.21.99.41,1.96.62,2.99-.43-.08-.93-.17-1.44-.26.06-.38.18-.73.17-1.07-.02-.37-.16-.74-.28-1.27Zm0-.6c-.17-.74-.33-1.43-.54-2.34-.44.69-.75,1.19-1.09,1.72.23.41.44.79.67,1.2.34-.21.58-.35.96-.58Z"/>
    <path class="cls-3" d="m384.56,163.67c.02-1.69,1.12-2.77,2.73-2.68.86.04,1.45.52,1.88,1.21.54.87.75,1.83.64,2.84-.11,1.01-.82,1.83-1.74,2.06-1.07.27-2.18-.12-2.81-1.02-.5-.72-.7-1.53-.7-2.4Zm.94-.46c.07,1.2.24,2.13.77,2.96.35.54.86.7,1.47.62.51-.07.88-.38.98-.85.32-1.44.07-2.81-.72-4.05-.31-.48-.83-.63-1.41-.49-.53.13-.86.49-.99,1-.09.34-.09.7-.1.81Z"/>
    <path class="cls-3" d="m394.61,165.49c-.63.16-1.1.29-1.65.43.13-1-.13-1.85-.54-2.65-.04-.08-.3-.06-.45-.08.74-1.14-.05-2.07-.45-3.2.89-.21,1.83-.48,2.78-.62.95-.14,1.7.38,1.89,1.17.18.77-.2,1.42-1.11,1.82-.26.11-.53.19-.8.28-.26.09-.52.18-.84.29.31.87.15,1.86,1.17,2.56Zm-1.9-5.28c.21.79.4,1.5.59,2.19.84-.07,1.6-.19,1.89-1.02.16-.46.02-.94-.39-1.24-.65-.48-1.32-.31-2.09.07Z"/>
    <path class="cls-3" d="m371.2,169.09c.17-.44.31-.8.47-1.2.34.31.61.65.97.83.33.17.75.22,1.13.22.8,0,1.34-.44,1.39-1.04.05-.53-.38-1.08-1.08-1.26-.61-.16-1.26-.2-1.87-.36-.78-.21-1.1-.68-1.13-1.47-.03-.89.47-1.56,1.43-1.68.76-.1,1.55-.02,2.48-.02-.12.44-.22.79-.34,1.24-.3-.28-.5-.51-.75-.7-.42-.32-.87-.43-1.39-.19-.43.2-.7.51-.68.98.02.42.26.73.69.84.55.14,1.1.26,1.65.38,1.23.26,1.76.88,1.67,1.93-.08.96-.87,1.65-2.01,1.65-.84,0-1.68-.1-2.63-.16Z"/>
    <path class="cls-3" d="m358.34,169.69h-4.7c.54-.95.37-1.9.3-2.88-.17-.06-.36-.13-.55-.19.02-.05.03-.14.07-.16.4-.15.66-.36.59-.85-.08-.61-.1-1.23-.15-1.87h4.32c-.23.43-.4.76-.63,1.19-.68-.97-1.57-.99-2.61-.8v2.01q1.03.27,1.79-.29c.02.23.06.43.06.62,0,.21-.02.42-.03.77-.56-.6-1.15-.66-1.85-.46v2.51c1,.21,1.96.3,2.68-.82.23.4.42.73.71,1.21Z"/>
    <path class="cls-3" d="m365.73,126.13c-1.67-.33-3.35-.6-5-.99-1.25-.3-2.06-1.09-2.45-2.4-.75-2.49-1.27-5.02-1.62-7.59-.51-3.76-1.05-7.52-1.41-11.3-.29-3-.44-6.02-.48-9.04-.14-10.26-.18-20.52-.31-30.78-.06-4.29-.26-8.59-.4-12.88-.02-.67-.05-1.35,0-2.02.07-.86.43-1.3,1.28-1.47.69-.14,1.42-.25,2.11-.17,1.9.24,3.78.6,5.67.91.14.02.27.08.46.14.12.3.24.63.38.95.5,1.11,1.24,1.98,2.39,2.46,1.6.67,3.19.07,3.95-1.47.14-.28.25-.58.41-.94,2.14.37,4.28.7,6.4,1.12,1.63.32,2.6,1.4,2.91,3.02.39,1.98.74,3.97,1.07,5.97.86,5.27,1.07,10.58,1.31,15.9.3,6.49.58,12.99.36,19.48-.12,3.58-.42,7.16-.74,10.72-.31,3.46-.7,6.92-1.15,10.37-.35,2.7-.66,5.41-1.49,8.04-.46,1.45-1.32,2.28-2.77,2.38-1.34.09-2.69-.02-4.03-.03-.42,0-.57-.33-.83-.57-.55-.54-1.1-1.13-1.77-1.48-1.42-.74-2.8-.33-3.76.95-.13.17-.24.35-.48.72Zm-.05-54.2c.36-.72.68-1.35,1-1.98.44-.85.58-1.75.39-2.69-.16-.78-.75-1.33-1.43-1.39-.72-.07-1.29.31-1.63,1.11-.08.19-.14.4-.18.61-.27,1.34-.08,2.64.63,3.79.4.65.38,1.18.14,1.87-.53,1.47-.85,3.01-.77,4.59.08,1.56.55,3,1.58,4.2,1.48,1.73,3.58,1.56,4.78-.36.13-.21.23-.44.35-.65.11-.19.23-.38.31-.51.35.81.59,1.64,1.05,2.33,1.05,1.57,2.77,1.58,3.87.05.37-.51.6-1.12.87-1.7.13-.27.2-.57.31-.88.28.18.48.31.85.54-.14-.38-.16-.56-.26-.69-.38-.49-.39-.99-.29-1.59.29-1.8.24-3.61,0-5.41-.2-1.49-.61-2.92-1.5-4.16-.63-.89-1.4-1.6-2.47-1.92-.84-.25-1.62-.14-2.29.44-1.42,1.23-1.2,3.63.44,4.54.3.17.68.21,1.03.31.03-.07.05-.14.08-.21-.2-.11-.4-.22-.6-.33-.65-.35-1.13-.86-1.33-1.58-.21-.74-.05-1.42.45-1.98.52-.59,1.24-.56,1.87-.32.55.21,1.07.56,1.51.96.9.8,1.43,1.84,1.78,2.98.65,2.14.72,4.33.55,6.53-.01.15-.12.29-.21.49-.21-.16-.36-.26-.49-.37-1.58-1.45-3.41-2.53-5.31-3.51-1.16-.6-2.32-1.23-3.45-1.89-.57-.34-1.07-.79-1.65-1.22Zm-.45,20.26c.31.05.66.04.96.16.79.31,1.56.68,2.34,1,.43.18.89.3,1.47.5v-2.11c.33.21.54.43.79.49.32.08.69.09,1.01.02.15-.03.34-.3.34-.47,0-.16-.19-.39-.35-.45-.32-.13-.68-.17-1.03-.26-1.73-.43-3.39-1.04-4.86-2.08-.36-.25-.64-.6-.96-.9.05-.08.09-.17.14-.25,1.52-.25,2.67.89,4.01,1.31.32-.79-.07-1.18-.65-1.52-.86-.5-1.72-1-2.54-1.55-.47-.31-.86-.72-.88-1.33.74-.31.76-.32,1.34-.12,1.06.36,1.96.98,2.77,1.75,1.06,1.01,1.13,1.37.56,2.63.42.1.64-.2.7-.48.1-.51.2-1.06.09-1.55-.37-1.74-2.92-3.53-4.7-3.35-.5.05-1,.19-1.22.72-.21.5.06.91.36,1.26.34.39.75.72,1.2,1.14-.25.03-.38.05-.51.05-.51.02-.9.22-1.07.72-.15.47.12.82.41,1.14.17.18.34.37.56.49.96.53,1.93,1.04,2.9,1.55.34.17.69.31,1.01.45,0,.24.02.39,0,.52-.14.73-.34.83-1.02.51-.22-.11-.43-.26-.65-.35-.55-.23-1.1-.5-1.67-.65-.64-.17-1.15.06-1.38.5-.28.54-.04.98.32,1.34.41.42.89.78,1.36,1.18-1.39.13-1.89.62-1.8,1.73.17,2.05,2.68,3.92,4.7,3.49.95-.2,1.34-.84,1.13-1.85-.58,1.23-1,1.43-2.27.84-.83-.38-1.58-.93-2.34-1.45-.25-.17-.46-.45-.6-.73-.24-.45-.06-.86.45-.97.33-.07.7-.05,1.05,0,1.6.28,3.01,1.03,4.37,1.87,1.29.8,2.55,1.66,3.84,2.51.41-.48.26-.94-.12-1.31-.36-.34-.77-.64-1.2-.87-2.03-1.08-4.09-2.13-6.12-3.21-.59-.31-1.18-.66-1.74-1.03-.31-.21-.68-.44-.46-1.07Zm4.46,13.42c-.18.45-.34.84-.53,1.3-.64-.34-1.12-.65-1.64-.86-.55-.22-1.13-.4-1.71-.5-.45-.08-.91.13-1.02.58-.08.33-.03.81.17,1.08.75,1.03,1.85,1.54,3.04,1.89-.87-.85-2.3-1.03-2.91-2.45,1.94-.18,3.23,1.29,4.99,1.54v-2.09c.32.22.5.41.72.47.33.09.69.15,1.02.09.17-.03.37-.31.42-.51.03-.11-.2-.34-.37-.43-.21-.11-.47-.13-.71-.19-1.74-.41-3.38-1.04-4.9-1.99-.56-.35-1.01-.79-1.22-1.42-.13-.4-.11-.77.29-1.03.71-.47,1.75-.12,2.03.7.12.33.18.72.4.98.45.53.94,1.06,1.5,1.45.25.17.83.15,1.07-.04.24-.18.27-.67.35-1.03.03-.12-.07-.27-.12-.4-.58-1.52-2.78-2.93-4.42-2.82-1.03.07-1.69.84-1.57,1.87.08.66.35,1.24.88,1.65.42.32.86.63,1.34.86.89.44,1.8.82,2.91,1.31Z"/>
    <path class="cls-3" d="m370.77,47.9c.51.05,1.02.09,1.52.17,1.79.27,3.58.5,5.35.85,2.34.45,3.74,1.97,4.27,4.23.45,1.9.76,3.82,1.11,5.74,1.07,5.88,1.32,11.84,1.53,17.8.1,2.84.22,5.67.31,8.51.15,5.11.02,10.22-.51,15.31-.46,4.41-1.03,8.8-1.56,13.2-.12.95-.31,1.88-.58,2.81.09-.8.15-1.6.26-2.4,1.29-9.94,2-19.91,1.61-29.94-.23-5.92-.48-11.84-.85-17.76-.26-4.14-.93-8.24-1.74-12.31-.66-3.27-1.98-4.49-5.32-5.02-1.47-.23-2.94-.45-4.41-.68-.34-.05-.67-.15-1.01-.23,0-.09.01-.18.02-.27Z"/>
    <path class="cls-3" d="m367.77,44.99c-1.29.18-2.16.75-2.31,2.02-.15,1.26.33,2.26,1.34,3.1.99-.91,1.08-2.19,1.76-3.18-.2,1.18-.4,2.36-.63,3.68.53-.08,1.02-.15,1.51-.23-.6.86-1.55,1.13-2.64.75-1.85-.64-2.92-3.02-2.16-4.81.53-1.27,1.71-1.8,3.13-1.32Z"/>
    <path class="cls-3" d="m362.8,46.91h-.48s0-.04,0-.06h.5s-.01.04-.02.06Z"/>
    <path class="cls-3" d="m408.18,70.57c4.1,6.65,6.71,13.57,7.94,21.08-1.17.52-2.31.55-3.55.47-.22-1.04-.44-2.07-.67-3.09-1.11-5.01-2.94-9.75-5.46-14.22-.39-.69-.41-1.22.04-1.83.54-.73,1.05-1.49,1.7-2.41Z"/>
    <path class="cls-3" d="m409.49,69.4c.25-.22.44-.42.66-.59.22-.17.46-.3.76-.5,4.29,6.77,7.12,14.05,8.55,22-.49.26-.97.51-1.62.85-.75-3.92-1.71-7.67-3.1-11.3-1.4-3.65-3.15-7.12-5.24-10.47Z"/>
    <path class="cls-3" d="m309.54,72.94c.63,1.29,1.16,2.44,1.73,3.57.22.43-.02.75-.18,1.09-1.77,3.69-3.13,7.52-4,11.51-.29,1.31-.53,2.64-.74,3.97-.07.48-.22.81-.7.93-.99.24-1.97.48-2.96.72-.68-3.5,3.67-17.34,6.85-21.79Z"/>
    <path class="cls-3" d="m300.72,94.58c-.63-.11-1.14-.19-1.74-.29.94-8.6,3.58-16.53,7.9-23.99.29.22.51.38.72.56.21.19.39.41.62.67-1.98,3.54-3.65,7.21-4.91,11.06-1.26,3.85-2.1,7.8-2.59,12Z"/>
    <path class="cls-3" d="m389.45,141.45c-.44-.39-.88-.77-1.32-1.16.44.39.88.77,1.32,1.16Z"/>
    <path class="cls-3" d="m324.97,137.07c-.59,2.28-1.1,4.57-.65,6.95-.82-2.41-.17-4.69.65-6.95Z"/>
    <path class="cls-3" d="m326.08,135.5c1.02-.85,1.91-.85,2.98-.02-.99-.49-1.98-.56-2.98.02Z"/>
    <path class="cls-3" d="m371.11,77.34c-.15.38-.31.75-.45,1.13-.26.7-.44,1.43-.77,2.09-.69,1.37-1.97,1.73-3.3.94-1.47-.87-2.12-2.28-2.22-3.9-.1-1.64.31-3.21.94-4.85.44.37.78.72,1.18.98,1.32.89,2.65,1.77,4.01,2.6,1.57.96,3.18,1.86,4.77,2.8.39.23.76.51,1.15.77-.02.84-.33,1.55-.77,2.19-.59.85-1.43,1.04-2.32.5-1.1-.66-1.77-1.62-1.8-2.94-.01-.46.05-.92.04-1.38,0-.29-.06-.59-.1-.88-.12-.02-.23-.03-.35-.05Z"/>
    <path class="cls-3" d="m365.39,71.45c-.87-1.1-1.15-2.12-1.05-3.25.02-.27.14-.55.28-.78.24-.38.62-.57,1.09-.5.47.08.75.41.83.85.05.3.05.65-.05.93-.3.85-.66,1.69-1.09,2.74Z"/>
    <path class="cls-3" d="m370.35,103.77c-1.53.05-2.48-.87-2.6-2.39,1.05.58,2.03,1.15,2.6,2.39Z"/>
  </g>
</svg>